<svg xmlns="http://www.w3.org/2000/svg" version="1.1" xmlns:xlink="http://www.w3.org/1999/xlink" viewBox="0 0 700 700" style="overflow: hidden; display: block;" width="700" height="700"><defs></defs><g id="two-0" transform="matrix(1 0 0 1 0 0)" opacity="1"><path transform="matrix(1 0 0 1 350 350)" id="two-508" d="M 300.135698 97.519999 C 277.204998 124.537583 226.858572 121.02462 206.443063 149.989665 C 185.462097 179.756965 220.756474 242.823809 188.030123 258.801262 C 145.560027 279.535744 107.414494 177.737023 61.992128 190.792153 C 22.160099 202.240529 40.193946 289.911001 0 300.01558 C -30.606066 307.709808 -59.40483 272.141283 -80.923586 249.057187 C -101.152458 227.356804 -101.608015 189.968769 -123.376562 169.813268 C -141.554336 152.982463 -171.419955 153.226463 -192.077279 139.552311 C -215.108373 124.306838 -233.887471 102.107867 -253.056411 82.223012 C -278.058711 56.286935 -322.863771 35.969212 -324.866484 0 C -326.789868 -34.544441 -281.783549 -55.828016 -265.093405 -86.134069 C -251.016584 -111.694836 -243.084513 -141.177714 -230.64766 -167.575334 C -216.805362 -196.95606 -215.133179 -242.342157 -185.16091 -254.852129 C -148.898622 -269.987461 -105.351654 -239.479763 -71.389869 -219.715425 C -43.442799 -203.451399 -32.207568 -155.468154 -0.000001 -152.599378 C 24.657804 -150.403071 38.436088 -189.577505 62.876521 -193.514036 C 84.855761 -197.054151 105.894375 -177.705541 128.114639 -176.334674 C 174.897097 -173.448454 245.872609 -236.187419 268.871082 -195.346276 C 299.340543 -141.238003 131.333507 -107.965823 150.646543 -48.94803 C 170.265342 11.004133 306.168019 -55.884668 335.426574 -0.000001 C 351.300648 30.31993 322.281631 71.427049 300.135698 97.519999 Z " fill="hsl(205, 79%, 48%)" stroke="undefined" stroke-width="1" stroke-opacity="1" fill-opacity="1" visibility="visible" stroke-linecap="butt" stroke-linejoin="miter" stroke-miterlimit="4"></path></g></svg>